<svg aria-hidden="true" fill="none" height="297" viewBox="0 0 966 297" width="966" xmlns="http://www.w3.org/2000/svg"><path clip-rule="evenodd" d="m424.878 218.637c-38.728 0-70.125-31.396-70.125-70.124 0-38.729 31.397-70.1257 70.125-70.1257s70.125 31.3967 70.125 70.1257c0 38.728-31.397 70.124-70.125 70.124zm514.893-207.7363c-22.712-11.471755-50.505-2.11107-61.85 20.9162l-48.933 98.7221-31.684-93.3468-.06-.0073c-6.297-18.1384-23.416-31.14738-43.551-31.14738-16.052 0-30.186 8.26828-38.45 20.81128l-.067-.0083-63.218 97.1825-11.202-78.7365c-3.873-25.3475-27.374-42.6182-52.476-38.74148-25.132 3.86288-42.38 27.28258-38.526 52.49188l1.959 13.2024c-25.848-43.2684-73.045-72.2393-126.991-72.2393-54.417 0-101.963 29.4857-127.657 73.3897l2.815-13.826c4.922-24.1841-10.633-47.7935-34.746-52.73131-24.104-4.92488-47.65 10.66771-52.568 34.85371l-19.155 94.1259-70.46-109.4007c-7.969-12.2491-21.715-20.34154-37.3396-20.34154-21.3859 0-39.2531 15.15684-43.5992 35.38604l-41.090585 201.7542c-4.920885 24.184 10.336685 47.69 34.488385 52.824 3.0027.638 6.2569.944 9.2146.965 20.6661.145 39.2633-14.406 43.6094-35.911l19.159-94.126s69.097 107.605 69.154 107.668c0 0 1.625 2.513 2.394 3.603 7.883 11.176 21.242 18.766 36.268 18.766 21.971 0 40.228-16.025 43.9-37.111l18.86-92.669c9.221 73.063 71.41 129.57 146.753 129.57 69.405 0 127.637-47.943 143.603-112.603l10.508 70.809c2.958 23.307 22.014 41.752 45.894 41.752 17.18 0 31.194-9.842 40.105-23.516l75.788-116.507 36.402 107.261c6.52 19.128 23.354 32.762 44.082 32.762 19.255 0 34.387-11.593 42.665-28.803l96.603-195.0378c11.4-22.8671 2.126-50.5273-20.601-62.0055z" fill="#fff" fill-rule="evenodd"/></svg>